<svg width="195" height="43" viewBox="0 0 195 43" fill="none" xmlns="http://www.w3.org/2000/svg">
<path d="M23.805 15.895V16.9H27.84C27.66 19.69 26.385 22.12 23.295 23.845L24.015 24.73C27.84 22.57 29.055 19.36 29.055 15.895H23.805ZM33.525 14.155V19.57H31.695V14.515H30.54V26.935H31.695V20.575H33.525V27.61H34.71V14.155H33.525ZM42.3538 16.555H45.5188V15.535H38.0038V16.555H41.1238V18.265C41.1238 20.59 39.4888 23.125 37.5538 24.04L38.2738 25.03C39.8038 24.25 41.1238 22.555 41.7388 20.59C42.3838 22.435 43.7038 23.98 45.2638 24.7L45.9538 23.71C43.9738 22.87 42.3538 20.545 42.3538 18.265V16.555ZM47.3338 14.17V27.61H48.5638V14.17H47.3338ZM53.8227 20.2H58.7877V15.4H52.5477V16.405H57.5427V19.21H52.5927V24.37H53.7027C56.0127 24.37 58.0527 24.28 60.4827 23.875L60.3627 22.87C58.0077 23.245 56.0277 23.35 53.8227 23.35V20.2ZM61.6227 14.14V27.625H62.8527V14.14H61.6227ZM76.8565 18.205H68.9365V14.65H67.7065V19.21H76.8565V18.205ZM68.8465 23.35H67.6165V27.28H76.9315V26.275H68.8465V23.35ZM66.0565 21.01V22H78.2515V21.01H66.0565ZM89.2019 23.2993V15.8359H91.0329V23.2993C91.0329 24.0073 90.8815 24.6104 90.5788 25.1084C90.2761 25.6064 89.8635 25.9873 89.341 26.251C88.8186 26.5146 88.2253 26.6465 87.5612 26.6465C86.8825 26.6465 86.2795 26.5317 85.7521 26.3022C85.2297 26.0728 84.8195 25.7212 84.5217 25.2476C84.2238 24.7739 84.0749 24.1733 84.0749 23.4458H85.9206C85.9206 23.8657 85.9865 24.2051 86.1184 24.4639C86.2551 24.7178 86.4455 24.9033 86.6896 25.0205C86.9387 25.1328 87.2292 25.189 87.5612 25.189C87.8786 25.189 88.1594 25.1182 88.4035 24.9766C88.6525 24.8301 88.8479 24.6177 88.9895 24.3394C89.1311 24.0562 89.2019 23.7095 89.2019 23.2993ZM101.798 21.0508V25.123C101.647 25.3232 101.41 25.543 101.088 25.7822C100.77 26.0166 100.348 26.2192 99.8205 26.3901C99.2932 26.561 98.6365 26.6465 97.8503 26.6465C97.1814 26.6465 96.5686 26.5342 96.012 26.3096C95.4553 26.0801 94.9744 25.7456 94.5691 25.3062C94.1687 24.8667 93.8586 24.332 93.6389 23.7021C93.4192 23.0674 93.3093 22.3447 93.3093 21.5342V20.7944C93.3093 19.9888 93.4094 19.271 93.6096 18.6411C93.8147 18.0063 94.1077 17.4692 94.4885 17.0298C94.8694 16.5903 95.3284 16.2583 95.8655 16.0337C96.4075 15.8042 97.0203 15.6895 97.7038 15.6895C98.5779 15.6895 99.3005 15.8359 99.8718 16.1289C100.448 16.417 100.892 16.8174 101.205 17.3301C101.517 17.8428 101.715 18.4287 101.798 19.0879H99.9963C99.9377 18.7168 99.823 18.3848 99.6521 18.0918C99.4861 17.7988 99.2468 17.5693 98.9343 17.4033C98.6267 17.2324 98.2263 17.147 97.7331 17.147C97.3083 17.147 96.9348 17.2275 96.6125 17.3887C96.2903 17.5498 96.0217 17.7866 95.8069 18.0991C95.5969 18.4116 95.4382 18.7925 95.3308 19.2417C95.2234 19.6909 95.1697 20.2036 95.1697 20.7798V21.5342C95.1697 22.1201 95.2307 22.6401 95.3528 23.0942C95.4797 23.5483 95.6604 23.9316 95.8948 24.2441C96.134 24.5566 96.4246 24.7935 96.7663 24.9546C97.1081 25.1108 97.4939 25.189 97.9236 25.189C98.3435 25.189 98.6877 25.1548 98.9563 25.0864C99.2248 25.0132 99.4372 24.9277 99.5935 24.8301C99.7546 24.7275 99.8791 24.6299 99.967 24.5371V22.4204H97.7478V21.0508H101.798ZM110.593 23.0283H112.424C112.366 23.7266 112.17 24.3491 111.838 24.896C111.506 25.438 111.04 25.8652 110.439 26.1777C109.839 26.4902 109.109 26.6465 108.249 26.6465C107.59 26.6465 106.997 26.5293 106.47 26.2949C105.942 26.0557 105.491 25.7188 105.115 25.2842C104.739 24.8447 104.45 24.3149 104.25 23.6948C104.055 23.0747 103.957 22.3813 103.957 21.6147V20.7285C103.957 19.9619 104.057 19.2686 104.258 18.6484C104.463 18.0283 104.756 17.4985 105.137 17.0591C105.517 16.6147 105.974 16.2754 106.506 16.041C107.043 15.8066 107.646 15.6895 108.315 15.6895C109.165 15.6895 109.883 15.8457 110.469 16.1582C111.054 16.4707 111.509 16.9028 111.831 17.4546C112.158 18.0063 112.358 18.6387 112.431 19.3516H110.6C110.552 18.8926 110.444 18.4995 110.278 18.1724C110.117 17.8452 109.878 17.5962 109.56 17.4253C109.243 17.2495 108.828 17.1616 108.315 17.1616C107.895 17.1616 107.529 17.2397 107.217 17.396C106.904 17.5522 106.643 17.7817 106.433 18.0845C106.223 18.3872 106.064 18.7607 105.957 19.2051C105.854 19.6445 105.803 20.1475 105.803 20.7139V21.6147C105.803 22.1519 105.849 22.6401 105.942 23.0796C106.04 23.5142 106.186 23.8877 106.382 24.2002C106.582 24.5127 106.836 24.7544 107.143 24.9253C107.451 25.0962 107.82 25.1816 108.249 25.1816C108.772 25.1816 109.194 25.0986 109.516 24.9326C109.844 24.7666 110.09 24.5249 110.256 24.2075C110.427 23.8853 110.539 23.4922 110.593 23.0283ZM123.965 23.23H120.215V19.69H123.965V23.23ZM128.315 14.155V19.15H125.165V15.22H123.965V18.715H120.215V15.22H119V24.235H125.165V20.14H128.315V27.64H129.545V14.155H128.315ZM143.444 19.39H135.539V17.95H143.009V17.02H135.539V15.61H143.369V14.65H134.309V20.35H143.444V19.39ZM135.509 23.575H134.279V27.31H143.609V26.305H135.509V23.575ZM132.704 21.61V22.6H144.869V21.61H132.704Z" fill="#FF5E5B"/>
<path d="M164.205 15.5L162.795 16.91L167.375 21.5L162.795 26.09L164.205 27.5L170.205 21.5L164.205 15.5Z" fill="#ED6C02"/>
<rect x="1" y="1" width="193" height="41" rx="3.5" stroke="#FF5E5B"/>
</svg>
